<svg class="svg-icon" style="width: 1em; height: 1em;vertical-align: middle;fill: currentColor;overflow: hidden;" viewBox="0 0 1024 1024" version="1.1" xmlns="http://www.w3.org/2000/svg"><path d="M500.92 308.92L386 404.71l-98-98-150.63 150.66 45.25 45.26L288 397.25l94 94 164.36-136.89L608 416V256H448zM640 64H128a64.19 64.19 0 0 0-64 64v768a64.19 64.19 0 0 0 64 64h444a289.06 289.06 0 0 1-82.6-64H128.11l-0.11-0.11V128.11l0.11-0.11h511.78l0.11 0.11v295a288.9 288.9 0 0 1 64-7.11V128a64.19 64.19 0 0 0-64-64zM446 576H160v64h263.15A285.9 285.9 0 0 1 446 576zM160 768h263.15a288.91 288.91 0 0 1-7.15-64H160z"  /><path d="M704 448c-141.38 0-256 114.62-256 256s114.62 256 256 256 256-114.62 256-256-114.62-256-256-256zM544 864l26.67-80L624 837.33z m93.33-40L584 770.67l173.33-173.34 53.33 53.33zM824 637.33L770.67 584l40-40L864 597.33z"  /></svg>